# xmcd
#
# Track frame offsets:
#	150
#	15290
#	35005
#	48648
#	64584
#	78647
#	94065
#	108092
#	123275
#	139806
#	152899
#	168654
#	186747
#	201758
#	220413
#	233408
#	249034
#	259778
#	275006
#	289586
#
# Disc length: 4071 seconds
#
# Revision: 0
# Processed by: cddbd v1.5.1PL0 Copyright (c) Steve Scherf et al.
# Submitted via: EasyCDDAExtractor 8.0.0.2
#
DISCID=1e0fe514
DTITLE=Jamppa Tuominen - Elämäni Parhainta Aikaa
DYEAR=2005
DGENRE=Dance
TTITLE0=Luoksein - Itke En Kuitenkaan
TTITLE1=Ilman Minua
TTITLE2=Jos Ystävään Luottaa Voit
TTITLE3=Yönkukka 
TTITLE4=Pohjoisen Laulu
TTITLE5=Kaiken Teen Minkä Voin
TTITLE6=Minä Untasi Valvon
TTITLE7=Silloin Tunnen Kaiken Kauniin
TTITLE8=Pois Pohjoiseen
TTITLE9=Viimeinen Heinäkuu
TTITLE10=Ei Kuule Kukaan
TTITLE11=Kerro Kuiskaten Tunteesi
TTITLE12=Yhdessä Kaikki Ois Toisin
TTITLE13=Sua Minä Odotan
TTITLE14=Hän Rakkaani On
TTITLE15=Pian Voittaa Yö
TTITLE16=Me Lupasimme
TTITLE17=Kesätuuli
TTITLE18=Tähdenlento
TTITLE19=Ruusut Unessa Kukkivat
EXTD=
EXTT0=
EXTT1=
EXTT2=
EXTT3=
EXTT4=
EXTT5=
EXTT6=
EXTT7=
EXTT8=
EXTT9=
EXTT10=
EXTT11=
EXTT12=
EXTT13=
EXTT14=
EXTT15=
EXTT16=
EXTT17=
EXTT18=
EXTT19=
PLAYORDER=
